<svg width="102" height="33" viewBox="0 0 102 33" fill="none" xmlns="http://www.w3.org/2000/svg">
<path d="M37.2449 22.1434C37.4205 22.1057 37.5961 22.0806 37.7718 22.0681C37.9474 22.043 38.1419 22.0305 38.3551 22.0305C38.5684 22.0305 38.7566 22.043 38.9197 22.0681C39.0828 22.0806 39.2521 22.1057 39.4278 22.1434C39.4654 22.2061 39.4967 22.3002 39.5218 22.4256C39.5595 22.5385 39.5908 22.664 39.6159 22.802C39.641 22.9274 39.6598 23.0529 39.6724 23.1783C39.6975 23.3038 39.7163 23.4104 39.7288 23.4982C39.8292 23.3101 39.9609 23.1219 40.124 22.9337C40.2871 22.7455 40.4816 22.5762 40.7074 22.4256C40.9332 22.2751 41.1841 22.1559 41.4601 22.0681C41.7486 21.9677 42.0685 21.9175 42.4198 21.9175C43.9378 21.9175 44.91 22.4946 45.3366 23.6488C45.5875 23.1846 45.9387 22.7832 46.3904 22.4444C46.8546 22.0932 47.4379 21.9175 48.1404 21.9175C49.2444 21.9175 50.0536 22.2249 50.568 22.8396C51.0949 23.4418 51.3583 24.389 51.3583 25.6811V31.8722C50.9067 31.9475 50.4613 31.9851 50.0222 31.9851C49.5831 31.9851 49.1378 31.9475 48.6862 31.8722V26.3774C48.6862 25.6999 48.5983 25.1793 48.4227 24.8155C48.2596 24.4517 47.9209 24.2698 47.4065 24.2698C47.1933 24.2698 46.98 24.3011 46.7667 24.3639C46.566 24.4266 46.3778 24.5458 46.2022 24.7214C46.0391 24.8845 45.9011 25.1229 45.7882 25.4365C45.6878 25.7376 45.6377 26.1328 45.6377 26.622V31.8722C45.186 31.9475 44.7407 31.9851 44.3016 31.9851C43.8625 31.9851 43.4171 31.9475 42.9655 31.8722V26.3774C42.9655 25.6999 42.8777 25.1793 42.7021 24.8155C42.539 24.4517 42.2003 24.2698 41.6859 24.2698C41.4726 24.2698 41.2594 24.3011 41.0461 24.3639C40.8328 24.4266 40.6384 24.5521 40.4627 24.7402C40.2996 24.9159 40.1679 25.1668 40.0676 25.4929C39.9672 25.8191 39.917 26.2457 39.917 26.7726V31.8722C39.4654 31.9475 39.02 31.9851 38.5809 31.9851C38.1419 31.9851 37.6965 31.9475 37.2449 31.8722V22.1434Z" fill="#2362FB"/>
<path d="M59.58 27.4124C59.4294 27.3873 59.2663 27.3685 59.0907 27.3559C58.9151 27.3308 58.7583 27.3183 58.6203 27.3183C58.0055 27.3183 57.5163 27.4312 57.1525 27.657C56.8012 27.8703 56.6256 28.2215 56.6256 28.7108C56.6256 29.037 56.6946 29.2879 56.8326 29.4635C56.9706 29.6392 57.1336 29.7709 57.3218 29.8587C57.5225 29.934 57.7295 29.9842 57.9428 30.0092C58.1686 30.0218 58.3631 30.0281 58.5262 30.0281C58.7143 30.0281 58.9025 30.0155 59.0907 29.9904C59.2789 29.9528 59.442 29.9214 59.58 29.8963V27.4124ZM59.58 25.4741C59.58 25.173 59.5298 24.9284 59.4294 24.7402C59.3291 24.5521 59.1911 24.4078 59.0154 24.3074C58.8398 24.1945 58.6203 24.1192 58.3568 24.0816C58.1059 24.044 57.8236 24.0251 57.51 24.0251C56.8326 24.0251 56.1112 24.1569 55.3459 24.4203C55.1703 24.0941 55.0386 23.7868 54.9508 23.4982C54.8629 23.2097 54.819 22.8647 54.819 22.4633C55.371 22.2751 55.923 22.1371 56.475 22.0493C57.027 21.9615 57.5414 21.9175 58.0181 21.9175C59.3228 21.9175 60.339 22.2312 61.0666 22.8584C61.8068 23.4857 62.1768 24.4893 62.1768 25.8693V31.5147C61.7378 31.6527 61.2046 31.7844 60.5773 31.9099C59.9501 32.0353 59.2412 32.098 58.4509 32.098C57.8111 32.098 57.2215 32.0416 56.682 31.9287C56.1551 31.8158 55.6972 31.6276 55.3083 31.3641C54.9319 31.1007 54.6371 30.762 54.4239 30.348C54.2231 29.934 54.1228 29.4259 54.1228 28.8237C54.1228 28.2215 54.2482 27.7197 54.4991 27.3183C54.7626 26.9043 55.095 26.5781 55.4965 26.3398C55.9105 26.0888 56.3684 25.9132 56.8702 25.8129C57.372 25.6999 57.8738 25.6435 58.3756 25.6435C58.7394 25.6435 59.1409 25.6623 59.58 25.6999V25.4741Z" fill="#2362FB"/>
<path d="M65.4975 22.1434C65.6856 22.1057 65.8613 22.0806 66.0244 22.0681C66.2 22.043 66.3882 22.0305 66.5889 22.0305C66.7771 22.0305 66.959 22.043 67.1346 22.0681C67.3228 22.0932 67.5047 22.1245 67.6803 22.1622C67.718 22.2249 67.7493 22.319 67.7744 22.4444C67.8121 22.5574 67.8434 22.6828 67.8685 22.8208C67.8936 22.9463 67.9124 23.078 67.925 23.216C67.9501 23.3414 67.9689 23.4481 67.9814 23.5359C68.2574 23.147 68.5961 22.802 68.9976 22.5009C69.399 22.1873 69.9009 22.0305 70.503 22.0305C70.6285 22.0305 70.7728 22.0367 70.9358 22.0493C71.0989 22.0618 71.2181 22.0806 71.2934 22.1057C71.3185 22.2312 71.3373 22.3754 71.3498 22.5385C71.3624 22.7016 71.3687 22.871 71.3687 23.0466C71.3687 23.2599 71.3561 23.492 71.331 23.7429C71.3185 23.9938 71.2871 24.2321 71.2369 24.458C71.0989 24.4329 70.9421 24.4203 70.7665 24.4203C70.6034 24.4203 70.503 24.4203 70.4654 24.4203C70.2521 24.4203 70.0138 24.4454 69.7503 24.4956C69.4869 24.5332 69.236 24.6461 68.9976 24.8343C68.7592 25.0225 68.5585 25.3048 68.3954 25.6811C68.2449 26.0575 68.1696 26.5844 68.1696 27.2618V31.891C67.9438 31.9287 67.718 31.9538 67.4922 31.9663C67.2663 31.9789 67.0468 31.9851 66.8335 31.9851C66.6203 31.9851 66.4007 31.9789 66.1749 31.9663C65.9616 31.9538 65.7358 31.9287 65.4975 31.891V22.1434Z" fill="#2362FB"/>
<path d="M73.8403 18.1163C74.2668 18.0411 74.7059 18.0034 75.1575 18.0034C75.6091 18.0034 76.0545 18.0411 76.4936 18.1163V31.8722C76.0545 31.9475 75.6091 31.9851 75.1575 31.9851C74.7059 31.9851 74.2668 31.9475 73.8403 31.8722V18.1163ZM76.87 26.7726L79.2786 22.1434C79.7679 22.0681 80.2634 22.0305 80.7653 22.0305C81.242 22.0305 81.7062 22.0681 82.1578 22.1434L79.6738 26.6408L82.5718 31.8722C82.0574 31.9475 81.5619 31.9851 81.0852 31.9851C80.6461 31.9851 80.1819 31.9475 79.6926 31.8722L76.87 26.7726Z" fill="#2362FB"/>
<path d="M86.7799 27.8264C86.8301 28.5791 87.0936 29.1248 87.5703 29.4635C88.047 29.8022 88.6743 29.9716 89.4521 29.9716C89.8786 29.9716 90.3114 29.934 90.7505 29.8587C91.2021 29.7709 91.6287 29.6517 92.0301 29.5012C92.1681 29.7521 92.2873 30.0532 92.3877 30.4044C92.488 30.7557 92.5445 31.132 92.557 31.5335C91.5785 31.9099 90.4745 32.098 89.2451 32.098C88.3418 32.098 87.564 31.9726 86.9117 31.7217C86.2718 31.4708 85.7449 31.1258 85.331 30.6867C84.9295 30.2351 84.6284 29.7019 84.4277 29.0872C84.2395 28.4724 84.1454 27.8013 84.1454 27.0737C84.1454 26.3586 84.2458 25.6874 84.4465 25.0601C84.6472 24.4329 84.942 23.8872 85.331 23.423C85.7324 22.9588 86.2217 22.595 86.7987 22.3315C87.3884 22.0555 88.0721 21.9175 88.8499 21.9175C89.5273 21.9175 90.1295 22.0367 90.6564 22.2751C91.1833 22.5134 91.6287 22.8396 91.9925 23.2536C92.3689 23.6676 92.6511 24.1631 92.8393 24.7402C93.0275 25.3048 93.1216 25.9132 93.1216 26.5656C93.1216 26.8039 93.109 27.0423 93.0839 27.2806C93.0714 27.5065 93.0526 27.6884 93.0275 27.8264H86.7799ZM90.6 25.9634C90.5749 25.3612 90.4055 24.8782 90.0919 24.5144C89.7908 24.1381 89.3643 23.9499 88.8123 23.9499C88.185 23.9499 87.7083 24.1255 87.3821 24.4768C87.0559 24.828 86.8615 25.3236 86.7987 25.9634H90.6Z" fill="#2362FB"/>
<path d="M96.4246 24.1757H95.2014L95.1073 23.7993L98.6262 19.3019H99.0591V22.1434H101.336C101.374 22.3315 101.399 22.5009 101.411 22.6514C101.424 22.802 101.43 22.9588 101.43 23.1219C101.43 23.2975 101.424 23.4669 101.411 23.63C101.399 23.7931 101.374 23.975 101.336 24.1757H99.0591V27.9957C99.0591 28.3846 99.0904 28.6983 99.1532 28.9366C99.2159 29.175 99.3037 29.3632 99.4166 29.5012C99.5421 29.6392 99.6926 29.7332 99.8682 29.7834C100.044 29.8336 100.251 29.8587 100.489 29.8587C100.677 29.8587 100.859 29.8462 101.035 29.8211C101.223 29.7834 101.386 29.7521 101.524 29.727C101.612 29.9653 101.675 30.2162 101.712 30.4797C101.75 30.7306 101.769 30.9564 101.769 31.1571C101.769 31.2951 101.763 31.4143 101.75 31.5147C101.75 31.6025 101.744 31.6903 101.731 31.7781C101.154 31.9161 100.558 31.9851 99.9435 31.9851C98.8019 31.9851 97.93 31.7217 97.3278 31.1948C96.7256 30.6553 96.4246 29.7834 96.4246 28.5791V24.1757Z" fill="#2362FB"/>
<path d="M37.772 7.27129H36.5112C36.4736 7.1082 36.4422 6.93884 36.4171 6.7632C36.4046 6.57502 36.3983 6.39939 36.3983 6.2363C36.3983 5.89758 36.436 5.56513 36.5112 5.23895H40.3877V14.9678C39.9361 15.0431 39.497 15.0807 39.0705 15.0807C38.6565 15.0807 38.2237 15.0431 37.772 14.9678V7.27129ZM37.3768 3.60179C37.3016 3.17525 37.2639 2.75499 37.2639 2.34099C37.2639 1.93954 37.3016 1.51928 37.3768 1.08019C37.5901 1.04256 37.8159 1.01747 38.0543 1.00492C38.3052 0.97983 38.531 0.967285 38.7317 0.967285C38.945 0.967285 39.1771 0.97983 39.428 1.00492C39.6789 1.01747 39.911 1.04256 40.1243 1.08019C40.1619 1.29346 40.187 1.50673 40.1995 1.72C40.2121 1.92073 40.2184 2.12772 40.2184 2.34099C40.2184 2.54172 40.2121 2.74871 40.1995 2.96198C40.187 3.17525 40.1619 3.38852 40.1243 3.60179C39.911 3.63943 39.6789 3.66452 39.428 3.67706C39.1896 3.68961 38.9638 3.69588 38.7506 3.69588C38.5498 3.69588 38.324 3.68961 38.0731 3.67706C37.8222 3.66452 37.5901 3.63943 37.3768 3.60179Z" fill="#2362FB"/>
<path d="M44.3327 5.23895C44.5083 5.20131 44.684 5.17622 44.8596 5.16368C45.0352 5.13859 45.2297 5.12604 45.443 5.12604C45.6562 5.12604 45.8444 5.13859 46.0075 5.16368C46.1706 5.17622 46.34 5.20131 46.5156 5.23895C46.5532 5.30168 46.5846 5.39577 46.6097 5.52122C46.6473 5.63413 46.6787 5.75958 46.7038 5.89758C46.7289 6.02303 46.7477 6.14848 46.7602 6.27394C46.7853 6.39939 46.8041 6.50602 46.8167 6.59384C46.917 6.40566 47.0488 6.21748 47.2119 6.0293C47.3749 5.84112 47.5694 5.67176 47.7952 5.52122C48.021 5.37068 48.2719 5.2515 48.5479 5.16368C48.8365 5.06332 49.1564 5.01314 49.5076 5.01314C51.0256 5.01314 51.9979 5.59022 52.4244 6.74438C52.6753 6.28021 53.0266 5.87876 53.4782 5.54004C53.9424 5.18877 54.5257 5.01314 55.2283 5.01314C56.3323 5.01314 57.1414 5.32049 57.6558 5.93521C58.1827 6.53739 58.4461 7.48455 58.4461 8.77672V14.9678C57.9945 15.0431 57.5492 15.0807 57.1101 15.0807C56.671 15.0807 56.2256 15.0431 55.774 14.9678V9.47298C55.774 8.79554 55.6862 8.27491 55.5105 7.91109C55.3475 7.54728 55.0087 7.36537 54.4944 7.36537C54.2811 7.36537 54.0678 7.39674 53.8546 7.45946C53.6538 7.52219 53.4657 7.64137 53.29 7.817C53.1269 7.98009 52.989 8.21845 52.876 8.53208C52.7757 8.83317 52.7255 9.22835 52.7255 9.71761V14.9678C52.2739 15.0431 51.8285 15.0807 51.3894 15.0807C50.9503 15.0807 50.505 15.0431 50.0534 14.9678V9.47298C50.0534 8.79554 49.9655 8.27491 49.7899 7.91109C49.6268 7.54728 49.2881 7.36537 48.7737 7.36537C48.5605 7.36537 48.3472 7.39674 48.1339 7.45946C47.9207 7.52219 47.7262 7.64764 47.5506 7.83582C47.3875 8.01146 47.2558 8.26236 47.1554 8.58854C47.055 8.91472 47.0049 9.34125 47.0049 9.86816V14.9678C46.5532 15.0431 46.1079 15.0807 45.6688 15.0807C45.2297 15.0807 44.7843 15.0431 44.3327 14.9678V5.23895Z" fill="#2362FB"/>
<path d="M62.1327 5.22013C62.3083 5.1825 62.4777 5.15741 62.6408 5.14486C62.8164 5.13232 63.0109 5.12604 63.2241 5.12604C63.5754 5.12604 63.9329 5.16368 64.2967 5.23895C64.3344 5.30168 64.3657 5.39577 64.3908 5.52122C64.4285 5.63413 64.4598 5.75958 64.4849 5.89758C64.5226 6.03558 64.5477 6.17357 64.5602 6.31157C64.5853 6.43702 64.6041 6.54366 64.6167 6.63148C64.7296 6.43075 64.8676 6.2363 65.0306 6.04812C65.1937 5.8474 65.3882 5.67176 65.614 5.52122C65.8524 5.37068 66.1158 5.2515 66.4044 5.16368C66.6929 5.06332 67.0128 5.01314 67.3641 5.01314C67.9035 5.01314 68.4053 5.1135 68.8695 5.31422C69.3462 5.51495 69.7602 5.82231 70.1115 6.2363C70.4628 6.63775 70.7325 7.14583 70.9207 7.76055C71.1214 8.37527 71.2217 9.10289 71.2217 9.94343C71.2217 10.7589 71.1026 11.4928 70.8642 12.1451C70.6258 12.7849 70.2808 13.3307 69.8292 13.7823C69.3776 14.2339 68.8256 14.5852 68.1732 14.8361C67.5209 15.0744 66.7807 15.1936 65.9527 15.1936C65.7395 15.1936 65.5262 15.1811 65.3129 15.156C65.1122 15.1434 64.9428 15.1246 64.8048 15.0995V19.4277C64.5665 19.4653 64.3344 19.4904 64.1086 19.5029C63.8953 19.5155 63.682 19.5217 63.4688 19.5217C63.2555 19.5217 63.0359 19.5155 62.8101 19.5029C62.5969 19.4904 62.371 19.4653 62.1327 19.4277V5.22013ZM64.8048 12.8978C65.1436 12.9982 65.5325 13.0484 65.9715 13.0484C66.7493 13.0484 67.3453 12.7975 67.7592 12.2957C68.1732 11.7939 68.3802 11.0349 68.3802 10.0187C68.3802 9.6298 68.3489 9.27226 68.2861 8.94608C68.2234 8.60736 68.1168 8.31882 67.9662 8.08045C67.8157 7.84209 67.6212 7.65392 67.3829 7.51592C67.1571 7.37792 66.8748 7.30892 66.5361 7.30892C66.2224 7.30892 65.9527 7.37165 65.7269 7.4971C65.5136 7.61001 65.338 7.7731 65.2 7.98637C65.062 8.18709 64.9616 8.42545 64.8989 8.70145C64.8362 8.97744 64.8048 9.27225 64.8048 9.58589V12.8978Z" fill="#2362FB"/>
<path d="M79.4794 10.508C79.3289 10.4829 79.1658 10.4641 78.9902 10.4515C78.8145 10.4264 78.6577 10.4139 78.5197 10.4139C77.905 10.4139 77.4157 10.5268 77.0519 10.7526C76.7006 10.9659 76.525 11.3171 76.525 11.8064C76.525 12.1326 76.594 12.3835 76.732 12.5591C76.87 12.7348 77.0331 12.8665 77.2213 12.9543C77.422 13.0296 77.629 13.0797 77.8423 13.1048C78.0681 13.1174 78.2625 13.1237 78.4256 13.1237C78.6138 13.1237 78.802 13.1111 78.9902 13.086C79.1783 13.0484 79.3414 13.017 79.4794 12.9919V10.508ZM79.4794 8.56972C79.4794 8.26863 79.4292 8.024 79.3289 7.83582C79.2285 7.64764 79.0905 7.50337 78.9149 7.40301C78.7393 7.2901 78.5197 7.21483 78.2563 7.1772C78.0054 7.13956 77.7231 7.12074 77.4095 7.12074C76.732 7.12074 76.0107 7.25247 75.2454 7.51592C75.0698 7.18974 74.938 6.88238 74.8502 6.59384C74.7624 6.3053 74.7185 5.9603 74.7185 5.55886C75.2705 5.37068 75.8225 5.23268 76.3745 5.14486C76.9265 5.05704 77.4408 5.01314 77.9175 5.01314C79.2222 5.01314 80.2384 5.32677 80.966 5.95403C81.7062 6.5813 82.0763 7.58492 82.0763 8.9649V14.6103C81.6372 14.7483 81.104 14.88 80.4768 15.0054C79.8495 15.1309 79.1407 15.1936 78.3503 15.1936C77.7105 15.1936 77.1209 15.1372 76.5815 15.0243C76.0546 14.9114 75.5967 14.7232 75.2078 14.4597C74.8314 14.1963 74.5366 13.8576 74.3233 13.4436C74.1226 13.0296 74.0222 12.5215 74.0222 11.9193C74.0222 11.3171 74.1477 10.8153 74.3986 10.4139C74.662 9.99988 74.9945 9.67371 75.3959 9.43534C75.8099 9.18444 76.2678 9.00881 76.7696 8.90844C77.2715 8.79554 77.7733 8.73908 78.2751 8.73908C78.6389 8.73908 79.0403 8.7579 79.4794 8.79554V8.56972Z" fill="#2362FB"/>
<path d="M92.3031 12.672C92.4536 12.9229 92.5791 13.2177 92.6794 13.5565C92.7798 13.8826 92.83 14.2715 92.83 14.7232C92.3282 14.9239 91.8577 15.0494 91.4186 15.0995C90.9796 15.1623 90.5217 15.1936 90.0449 15.1936C89.2295 15.1936 88.5207 15.0682 87.9185 14.8173C87.3163 14.5538 86.8145 14.1963 86.4131 13.7446C86.0242 13.293 85.7294 12.7598 85.5286 12.1451C85.3279 11.5179 85.2276 10.8404 85.2276 10.1128C85.2276 9.39771 85.3216 8.73281 85.5098 8.11809C85.7105 7.50337 86.0054 6.96393 86.3943 6.49975C86.7957 6.03558 87.2913 5.67176 87.8809 5.40831C88.4705 5.14486 89.1542 5.01314 89.932 5.01314C90.208 5.01314 90.4589 5.01941 90.6847 5.03195C90.9231 5.0445 91.1489 5.06959 91.3622 5.10722C91.5755 5.14486 91.7887 5.19504 92.002 5.25777C92.2153 5.32049 92.4536 5.40204 92.7171 5.5024C92.7171 5.79094 92.6794 6.11712 92.6042 6.48093C92.5289 6.8322 92.4097 7.17092 92.2466 7.4971C91.8703 7.37165 91.5378 7.2901 91.2493 7.25247C90.9733 7.20229 90.6534 7.1772 90.2896 7.1772C89.5118 7.1772 88.9221 7.43437 88.5207 7.94873C88.1318 8.45054 87.9373 9.17189 87.9373 10.1128C87.9373 11.129 88.1506 11.8691 88.5771 12.3333C89.0037 12.7975 89.5808 13.0296 90.3084 13.0296C90.4966 13.0296 90.6659 13.0296 90.8165 13.0296C90.9796 13.017 91.1364 12.9982 91.2869 12.9731C91.4375 12.948 91.588 12.9104 91.7386 12.8602C91.9016 12.81 92.0898 12.7473 92.3031 12.672Z" fill="#2362FB"/>
<path d="M96.2851 7.27129H95.062L94.9679 6.89493L98.4868 2.39745H98.9196V5.23895H101.197C101.234 5.42713 101.259 5.59649 101.272 5.74703C101.284 5.89758 101.291 6.05439 101.291 6.21748C101.291 6.39312 101.284 6.56248 101.272 6.72557C101.259 6.88865 101.234 7.07056 101.197 7.27129H98.9196V11.0913C98.9196 11.4802 98.951 11.7939 99.0137 12.0322C99.0765 12.2706 99.1643 12.4588 99.2772 12.5968C99.4026 12.7348 99.5532 12.8288 99.7288 12.879C99.9044 12.9292 100.111 12.9543 100.35 12.9543C100.538 12.9543 100.72 12.9417 100.896 12.9167C101.084 12.879 101.247 12.8477 101.385 12.8226C101.473 13.0609 101.535 13.3118 101.573 13.5753C101.611 13.8262 101.629 14.052 101.629 14.2527C101.629 14.3907 101.623 14.5099 101.611 14.6103C101.611 14.6981 101.604 14.7859 101.592 14.8737C101.015 15.0117 100.419 15.0807 99.8041 15.0807C98.6625 15.0807 97.7906 14.8173 97.1884 14.2904C96.5862 13.7509 96.2851 12.879 96.2851 11.6747V7.27129Z" fill="#2362FB"/>
<path fill-rule="evenodd" clip-rule="evenodd" d="M37.7719 22.0681C37.5963 22.0806 37.4206 22.1057 37.245 22.1434V31.8722C37.6966 31.9475 38.142 31.9851 38.5811 31.9851C39.0202 31.9851 39.4655 31.9475 39.9171 31.8722V26.7726C39.9171 26.2457 39.9673 25.8191 40.0677 25.4929C40.168 25.1668 40.2998 24.9159 40.4629 24.7402C40.6385 24.5521 40.8329 24.4266 41.0462 24.3639C41.2595 24.3011 41.4728 24.2698 41.686 24.2698C42.2004 24.2698 42.5391 24.4517 42.7022 24.8155C42.8778 25.1793 42.9656 25.6999 42.9656 26.3774V31.8722C43.4173 31.9475 43.8626 31.9851 44.3017 31.9851C44.7408 31.9851 45.1862 31.9475 45.6378 31.8722V26.622C45.6378 26.1328 45.688 25.7376 45.7883 25.4365C45.9012 25.1229 46.0392 24.8845 46.2023 24.7214C46.378 24.5458 46.5661 24.4266 46.7669 24.3639C46.9801 24.3011 47.1934 24.2698 47.4067 24.2698C47.921 24.2698 48.2597 24.4517 48.4228 24.8155C48.5985 25.1793 48.6863 25.6999 48.6863 26.3774V31.8722C49.1379 31.9475 49.5833 31.9851 50.0224 31.9851C50.4614 31.9851 50.9068 31.9475 51.3584 31.8722V25.6811C51.3584 24.389 51.095 23.4418 50.5681 22.8396C50.0537 22.2249 49.2445 21.9175 48.1406 21.9175C47.438 21.9175 46.8547 22.0932 46.3905 22.4444C46.1314 22.6388 45.9053 22.8538 45.7123 23.0894C45.5688 23.2645 45.4436 23.4509 45.3367 23.6488C45.2555 23.4291 45.1545 23.2302 45.0337 23.0523C44.5202 22.2958 43.6489 21.9175 42.4199 21.9175C42.0687 21.9175 41.7487 21.9677 41.4602 22.0681C41.1842 22.1559 40.9333 22.2751 40.7075 22.4256C40.5164 22.553 40.3477 22.6939 40.2016 22.8483C40.175 22.8763 40.1492 22.9048 40.1241 22.9337C40.0709 22.9951 40.021 23.0565 39.9745 23.1179C39.9662 23.1288 39.9581 23.1397 39.9501 23.1506C39.8645 23.2665 39.7908 23.3824 39.729 23.4982C39.7164 23.4104 39.6976 23.3038 39.6725 23.1783C39.66 23.0529 39.6411 22.9274 39.6161 22.802C39.6087 22.7618 39.6009 22.7226 39.5925 22.6845C39.5721 22.5919 39.5486 22.5056 39.522 22.4256C39.4969 22.3002 39.4655 22.2061 39.4279 22.1434C39.2522 22.1057 39.0829 22.0806 38.9198 22.0681C38.7567 22.043 38.5685 22.0305 38.3553 22.0305C38.142 22.0305 37.9475 22.043 37.7719 22.0681ZM38.9962 22.6461C38.9555 22.6412 38.9155 22.6373 38.8762 22.6343L38.8547 22.6327L38.8334 22.6294C38.7058 22.6097 38.5475 22.5983 38.3553 22.5983C38.1637 22.5983 37.9966 22.6097 37.8522 22.6303L37.8324 22.6331L37.8129 22.6345V31.3766C38.072 31.4037 38.328 31.4172 38.5811 31.4172C38.8341 31.4172 39.0902 31.4037 39.3492 31.3766V26.7726C39.3492 26.2163 39.4014 25.7272 39.5249 25.3259C39.6405 24.9503 39.8061 24.6129 40.0467 24.3538L40.0477 24.3527C40.2816 24.1022 40.5607 23.9147 40.886 23.8191C41.1491 23.7417 41.4163 23.7019 41.686 23.7019C42.0066 23.7019 42.3194 23.7581 42.5945 23.9059C42.8762 24.0572 43.0859 24.2873 43.217 24.5756C43.4443 25.0507 43.5335 25.6684 43.5335 26.3774V31.3766C43.7926 31.4037 44.0486 31.4172 44.3017 31.4172C44.5548 31.4172 44.8108 31.4037 45.0699 31.3766V26.622C45.0699 26.1011 45.1224 25.6384 45.2496 25.2569L45.2539 25.2441C45.3834 24.8842 45.5583 24.5623 45.8008 24.3199C46.0296 24.091 46.2946 23.9165 46.5975 23.8218L46.6066 23.819C46.8697 23.7416 47.1369 23.7019 47.4067 23.7019C47.7272 23.7019 48.04 23.7581 48.3152 23.9059C48.5968 24.0572 48.8065 24.2873 48.9376 24.5756C49.165 25.0507 49.2542 25.6684 49.2542 26.3774V31.3766C49.5132 31.4037 49.7693 31.4172 50.0224 31.4172C50.2754 31.4172 50.5315 31.4037 50.7905 31.3766V25.6811C50.7905 24.447 50.5356 23.6649 50.1407 23.2136L50.1324 23.2041C49.7625 22.762 49.1431 22.4854 48.1406 22.4854C47.5354 22.4854 47.0796 22.6351 46.7332 22.8973L46.7312 22.8988C46.3406 23.1918 46.0455 23.5318 45.8363 23.9188L45.2392 25.0233L44.804 23.8457C44.6316 23.3792 44.3618 23.0548 43.9977 22.8387C43.6244 22.6171 43.1107 22.4854 42.4199 22.4854C42.1228 22.4854 41.8671 22.5278 41.6468 22.6045L41.6396 22.6069L41.6324 22.6092C41.4036 22.682 41.2013 22.779 41.0225 22.8981C40.8353 23.0229 40.6802 23.1592 40.5533 23.3056C40.4135 23.4669 40.3074 23.6204 40.23 23.7655L39.4125 25.2984L39.1668 23.5786C39.1562 23.5046 39.1395 23.4089 39.1156 23.2897L39.1102 23.2625L39.1074 23.2349C39.0968 23.1281 39.0807 23.0209 39.0592 22.9134L39.0572 22.9036C39.0395 22.8059 39.0189 22.7204 38.9962 22.6461ZM60.148 26.9313V30.3703L59.6817 30.4551C59.5479 30.4794 59.3882 30.5101 59.2022 30.5473L59.1841 30.5509L59.1659 30.5533C58.953 30.5817 58.7398 30.596 58.5263 30.596C58.3496 30.596 58.1441 30.5892 57.9114 30.5763L57.894 30.5753L57.8766 30.5732C57.6179 30.5428 57.3662 30.4818 57.1225 30.3904L57.1018 30.3827L57.0818 30.3733C56.8069 30.245 56.5749 30.0546 56.3861 29.8144C56.1405 29.5018 56.0578 29.1077 56.0578 28.7108C56.0578 28.0684 56.3015 27.5106 56.8553 27.1731C57.3397 26.8732 57.9445 26.7504 58.6204 26.7504C58.7857 26.7504 58.9634 26.7648 59.1511 26.7909C59.3346 26.8045 59.5089 26.8248 59.6735 26.8522L60.148 26.9313ZM57.3219 29.8587C57.1338 29.7709 56.9707 29.6392 56.8327 29.4635C56.6947 29.2879 56.6257 29.037 56.6257 28.7108C56.6257 28.2215 56.8013 27.8703 57.1526 27.657C57.5164 27.4312 58.0057 27.3183 58.6204 27.3183C58.7584 27.3183 58.9152 27.3308 59.0908 27.3559C59.2665 27.3685 59.4295 27.3873 59.5801 27.4124V29.8963C59.4421 29.9214 59.279 29.9528 59.0908 29.9904C58.9026 30.0155 58.7145 30.0281 58.5263 30.0281C58.3632 30.0281 58.1687 30.0218 57.9429 30.0092C57.7297 29.9842 57.5227 29.934 57.3219 29.8587ZM55.4966 26.3398C55.0952 26.5781 54.7627 26.9043 54.4993 27.3183C54.2484 27.7197 54.1229 28.2215 54.1229 28.8237C54.1229 29.4259 54.2233 29.934 54.424 30.348C54.6373 30.762 54.9321 31.1007 55.3084 31.3641C55.6973 31.6276 56.1552 31.8158 56.6821 31.9287C57.2216 32.0416 57.8112 32.098 58.451 32.098C59.2414 32.098 59.9502 32.0353 60.5774 31.9099C61.2047 31.7844 61.7379 31.6527 62.177 31.5147V25.8693C62.177 24.4893 61.8069 23.4857 61.0667 22.8584C60.3391 22.2312 59.3229 21.9175 58.0182 21.9175C57.5415 21.9175 57.0271 21.9615 56.4751 22.0493C55.9231 22.1371 55.3712 22.2751 54.8192 22.4633C54.8192 22.8647 54.8631 23.2097 54.9509 23.4982C55.0387 23.7868 55.1704 24.0941 55.3461 24.4203C56.1113 24.1569 56.8327 24.0251 57.5101 24.0251C57.8238 24.0251 58.106 24.044 58.3569 24.0816C58.6204 24.1192 58.8399 24.1945 59.0156 24.3074C59.1912 24.4078 59.3292 24.5521 59.4295 24.7402C59.4882 24.8502 59.5297 24.9794 59.5541 25.1279C59.5714 25.2335 59.5801 25.349 59.5801 25.4741V25.6999C59.3832 25.6831 59.1939 25.67 59.0122 25.6607C58.7886 25.6492 58.5764 25.6435 58.3757 25.6435C57.8739 25.6435 57.3721 25.6999 56.8703 25.8129C56.3685 25.9132 55.9106 26.0888 55.4966 26.3398ZM59.3102 23.8218C59.0532 23.6596 58.7562 23.5652 58.4393 23.5197C58.1554 23.4772 57.8449 23.4573 57.5101 23.4573C56.908 23.4573 56.2848 23.5511 55.6423 23.7325C55.5817 23.5921 55.5325 23.459 55.4942 23.3329C55.4546 23.203 55.4245 23.0502 55.4064 22.8725C55.7935 22.7587 56.1794 22.6713 56.5644 22.6101C57.0917 22.5262 57.5759 22.4854 58.0182 22.4854C59.2358 22.4854 60.1032 22.7776 60.6959 23.2886L60.6996 23.2917C61.2656 23.7714 61.6091 24.5832 61.6091 25.8693V31.0887C61.2774 31.1786 60.8968 31.2668 60.4661 31.353C59.8828 31.4696 59.2123 31.5301 58.451 31.5301C57.8448 31.5301 57.2952 31.4767 56.7999 31.3731C56.3363 31.2736 55.9499 31.112 55.6306 30.8964C55.3343 30.6883 55.1027 30.4232 54.932 30.0941C54.7802 29.7781 54.6908 29.362 54.6908 28.8237C54.6908 28.3005 54.7993 27.9106 54.9796 27.6212C55.1976 27.2794 55.4662 27.0183 55.7865 26.8281L55.7909 26.8254C56.1454 26.6106 56.5408 26.4579 56.9817 26.3697L56.995 26.3669C57.4569 26.263 57.9169 26.2114 58.3757 26.2114C58.7204 26.2114 59.1054 26.2292 59.5316 26.2658L60.148 26.3186V25.4741C60.148 25.116 60.0892 24.7703 59.9306 24.473C59.7851 24.2001 59.5777 23.9779 59.3102 23.8218ZM66.0245 22.0681C65.8614 22.0806 65.6858 22.1057 65.4976 22.1434V31.891C65.7359 31.9287 65.9618 31.9538 66.175 31.9663C66.4008 31.9789 66.6204 31.9851 66.8337 31.9851C67.0469 31.9851 67.2665 31.9789 67.4923 31.9663C67.7181 31.9538 67.9439 31.9287 68.1697 31.891V27.2618C68.1697 26.5844 68.245 26.0575 68.3955 25.6811C68.5586 25.3048 68.7594 25.0225 68.9977 24.8343C69.2361 24.6461 69.487 24.5332 69.7504 24.4956C70.0139 24.4454 70.2522 24.4203 70.4655 24.4203H70.7666C70.9422 24.4203 71.0991 24.4329 71.237 24.458C71.237 24.4579 71.237 24.458 71.237 24.458C71.2587 24.3603 71.2769 24.2603 71.2916 24.158C71.3039 24.0723 71.3137 23.985 71.321 23.8961C71.3252 23.8456 71.3286 23.7945 71.3311 23.7429C71.3562 23.492 71.3688 23.2599 71.3688 23.0466C71.3688 22.871 71.3625 22.7016 71.35 22.5385C71.3374 22.3754 71.3186 22.2312 71.2935 22.1057C71.2182 22.0806 71.0991 22.0618 70.936 22.0493C70.7729 22.0367 70.6286 22.0305 70.5032 22.0305C69.901 22.0305 69.3992 22.1873 68.9977 22.5009C68.8068 22.6441 68.6301 22.7972 68.4675 22.9603C68.4085 23.0195 68.3514 23.08 68.2961 23.1418C68.283 23.1564 68.2701 23.171 68.2573 23.1858C68.1593 23.2982 68.0674 23.4149 67.9816 23.5359C67.969 23.4481 67.9502 23.3414 67.9251 23.216C67.9126 23.078 67.8937 22.9463 67.8686 22.8208C67.866 22.8061 67.8632 22.7915 67.8604 22.7771C67.8368 22.6562 67.8082 22.5453 67.7746 22.4444C67.7495 22.319 67.7181 22.2249 67.6805 22.1622C67.5048 22.1245 67.3229 22.0932 67.1347 22.0681C66.9591 22.043 66.7772 22.0305 66.589 22.0305C66.3883 22.0305 66.2001 22.043 66.0245 22.0681ZM67.2469 22.6586C67.1854 22.6486 67.123 22.6394 67.0597 22.631L67.0544 22.6303C66.9069 22.6092 66.7519 22.5983 66.589 22.5983C66.4117 22.5983 66.2506 22.6094 66.1048 22.6303L66.0865 22.6329L66.068 22.6343C66.0672 22.6344 66.0663 22.6344 66.0655 22.6345V31.3891C66.1136 31.3932 66.1609 31.3966 66.2074 31.3993C66.423 31.4113 66.6318 31.4172 66.8337 31.4172C67.0358 31.4172 67.2448 31.4113 67.4608 31.3993C67.5078 31.3967 67.5548 31.3935 67.6018 31.3897V27.2618C67.6018 26.5541 67.6788 25.9439 67.8683 25.4702L67.8713 25.4627L67.8745 25.4553C68.0624 25.0217 68.3125 24.6518 68.6458 24.3886C68.9478 24.1502 69.2857 23.9911 69.6563 23.9354C69.9418 23.8817 70.2125 23.8524 70.4655 23.8524H70.7548C70.7586 23.8071 70.7616 23.7612 70.764 23.7145L70.7647 23.7004L70.7661 23.6864C70.7896 23.451 70.8009 23.238 70.8009 23.0466C70.8009 22.894 70.7957 22.7478 70.7857 22.6081C70.6785 22.6014 70.5845 22.5983 70.5032 22.5983C70.0037 22.5983 69.6316 22.7264 69.3473 22.9484L69.3385 22.9553C68.9817 23.2229 68.6849 23.5261 68.4447 23.8646L67.6207 25.0256L67.4194 23.6162C67.4088 23.5422 67.3921 23.4466 67.3682 23.3274L67.3623 23.2976L67.3595 23.2674C67.3487 23.1479 67.3326 23.0363 67.3118 22.9322L67.3098 22.9224C67.2916 22.822 67.2703 22.7344 67.2469 22.6586ZM76.4937 18.1163C76.0546 18.0411 75.6093 18.0034 75.1576 18.0034C74.706 18.0034 74.2669 18.0411 73.8404 18.1163V31.8722C74.2669 31.9475 74.706 31.9851 75.1576 31.9851C75.6093 31.9851 76.0546 31.9475 76.4937 31.8722V18.1163ZM76.8701 26.7726L79.6928 31.8722C80.182 31.9475 80.6462 31.9851 81.0853 31.9851C81.371 31.9851 81.6635 31.9716 81.9628 31.9446C82.1628 31.9265 82.3658 31.9024 82.5719 31.8722L79.6739 26.6408L82.1579 22.1434C81.9584 22.1101 81.7565 22.0842 81.5521 22.0656C81.2938 22.0422 81.0315 22.0305 80.7654 22.0305C80.2636 22.0305 79.768 22.0681 79.2788 22.1434L76.8701 26.7726ZM79.6471 22.6658L77.5146 26.7643L80.0523 31.3492C80.4151 31.3948 80.7593 31.4172 81.0853 31.4172C81.2732 31.4172 81.4648 31.411 81.6602 31.3984L79.025 26.6413L81.2501 22.6125C81.0903 22.6031 80.9288 22.5983 80.7654 22.5983C80.3885 22.5983 80.0157 22.6209 79.6471 22.6658ZM75.9258 31.3775V18.6111C75.6722 18.5846 75.4162 18.5713 75.1576 18.5713C74.9028 18.5713 74.653 18.5842 74.4083 18.6098V31.3787C74.653 31.4043 74.9028 31.4172 75.1576 31.4172C75.4162 31.4172 75.6722 31.404 75.9258 31.3775ZM86.173 27.2585H92.5165C92.5167 27.2554 92.5169 27.2523 92.517 27.2491L92.5178 27.2351L92.5193 27.2212C92.5423 27.0025 92.5538 26.784 92.5538 26.5656C92.5538 25.9684 92.4678 25.4211 92.3007 24.9198L92.2995 24.9163C92.1341 24.409 91.8903 23.9853 91.5724 23.6356L91.566 23.6285C91.2581 23.2782 90.8795 22.9992 90.4225 22.7925C89.9807 22.5926 89.4605 22.4854 88.85 22.4854C88.1394 22.4854 87.5406 22.6114 87.0396 22.8459L87.0347 22.8482C86.5307 23.0782 86.1092 23.3924 85.7635 23.7911C85.4273 24.1934 85.1673 24.6715 84.9875 25.2332C84.8062 25.7999 84.7134 26.4123 84.7134 27.0737C84.7134 27.7501 84.8006 28.3628 84.9692 28.9157C85.1465 29.4565 85.4077 29.9163 85.75 30.3032C86.0978 30.6701 86.5486 30.969 87.1173 31.1923C87.6884 31.4116 88.3931 31.5301 89.2452 31.5301C90.2495 31.5301 91.1522 31.3984 91.9585 31.1419C91.9333 30.9376 91.8942 30.7439 91.8417 30.5604C91.8049 30.4315 91.766 30.3125 91.7253 30.203C91.4456 30.2873 91.1568 30.3583 90.859 30.4162L90.8466 30.4186C90.3772 30.499 89.9123 30.5395 89.4522 30.5395C88.5949 30.5395 87.8415 30.3528 87.2415 29.9265C86.5873 29.4616 86.2714 28.7337 86.2134 27.8641L86.173 27.2585ZM92.0303 29.5012C92.1682 29.7521 92.2874 30.0532 92.3878 30.4044C92.4882 30.7557 92.5446 31.132 92.5572 31.5335C91.5786 31.9099 90.4746 32.098 89.2452 32.098C88.3419 32.098 87.5641 31.9726 86.9118 31.7217C86.272 31.4708 85.7451 31.1258 85.3311 30.6867C84.9296 30.2351 84.6285 29.7019 84.4278 29.0872C84.2396 28.4724 84.1455 27.8013 84.1455 27.0737C84.1455 26.3586 84.2459 25.6874 84.4466 25.0601C84.6474 24.4329 84.9422 23.8872 85.3311 23.423C85.7325 22.9588 86.2218 22.595 86.7989 22.3315C87.3885 22.0555 88.0722 21.9175 88.85 21.9175C89.5275 21.9175 90.1296 22.0367 90.6565 22.2751C91.1834 22.5134 91.6288 22.8396 91.9926 23.2536C92.369 23.6676 92.6512 24.1631 92.8394 24.7402C93.0276 25.3048 93.1217 25.9132 93.1217 26.5656C93.1217 26.8039 93.1091 27.0423 93.0841 27.2806C93.0715 27.5065 93.0527 27.6884 93.0276 27.8264H86.7801C86.7937 28.031 86.8231 28.2203 86.8682 28.3943C86.9892 28.8604 87.2233 29.2169 87.5704 29.4635C88.0471 29.8022 88.6744 29.9716 89.4522 29.9716C89.8787 29.9716 90.3116 29.934 90.7506 29.8587C91.2023 29.7709 91.6288 29.6517 92.0303 29.5012ZM91.1921 26.5313H86.1726L86.2337 25.908C86.3044 25.1864 86.5306 24.5593 86.9661 24.0904C87.4302 23.5905 88.0785 23.382 88.8124 23.382C89.5051 23.382 90.1039 23.6255 90.5289 24.1515C90.9409 24.6336 91.1386 25.2467 91.1675 25.9398L91.1921 26.5313ZM90.092 24.5144C89.7909 24.1381 89.3644 23.9499 88.8124 23.9499C88.1851 23.9499 87.7084 24.1255 87.3822 24.4768C87.16 24.7161 86.999 25.0223 86.899 25.3955C86.8522 25.5701 86.8189 25.7594 86.7989 25.9634H90.6001C90.5916 25.7606 90.5668 25.5713 90.5256 25.3955C90.4445 25.0494 90.3 24.7557 90.092 24.5144ZM96.9926 23.6078V28.5791C96.9926 29.6995 97.2726 30.3811 97.7043 30.7695C98.1665 31.1725 98.8834 31.4172 99.9436 31.4172C100.373 31.4172 100.791 31.3811 101.198 31.3092C101.2 31.2642 101.201 31.2136 101.201 31.1571C101.201 30.9908 101.185 30.7939 101.151 30.5639L101.15 30.56C101.142 30.4999 101.132 30.4408 101.12 30.3826L101.115 30.3833C100.912 30.4124 100.703 30.4266 100.489 30.4266C100.213 30.4266 99.9514 30.3978 99.7123 30.3295C99.4329 30.2496 99.1915 30.0976 98.9965 29.8832L98.9866 29.8722L98.9772 29.8608C98.797 29.6405 98.6801 29.37 98.6041 29.0811C98.5239 28.7766 98.4913 28.4088 98.4913 27.9957V23.6078H100.843C100.844 23.6006 100.845 23.5935 100.845 23.5864C100.857 23.4388 100.862 23.284 100.862 23.1219C100.862 22.978 100.857 22.8412 100.847 22.7113H98.4913V20.3961L95.9783 23.6078H96.9926ZM98.6264 19.3019H99.0592V22.1434H101.336C101.374 22.3315 101.399 22.5009 101.411 22.6514C101.424 22.802 101.43 22.9588 101.43 23.1219C101.43 23.2975 101.424 23.4669 101.411 23.63C101.399 23.7931 101.374 23.975 101.336 24.1757H99.0592V27.9957C99.0592 28.3846 99.0905 28.6983 99.1533 28.9366C99.216 29.175 99.3038 29.3632 99.4167 29.5012C99.5422 29.6392 99.6927 29.7332 99.8684 29.7834C100.044 29.8336 100.251 29.8587 100.489 29.8587C100.678 29.8587 100.859 29.8462 101.035 29.8211C101.223 29.7834 101.386 29.7521 101.524 29.727C101.612 29.9653 101.675 30.2162 101.713 30.4797C101.75 30.7306 101.769 30.9564 101.769 31.1571C101.769 31.2951 101.763 31.4143 101.75 31.5147C101.75 31.6025 101.744 31.6903 101.731 31.7781C101.154 31.9161 100.558 31.9851 99.9436 31.9851C98.802 31.9851 97.9301 31.7217 97.3279 31.1948C96.7258 30.6553 96.4247 29.7834 96.4247 28.5791V24.1757H95.2015L95.1074 23.7993L98.6264 19.3019Z" fill="#2362FB"/>
<path d="M18.9312 12.3165C20.5653 13.517 21.6147 15.4465 21.6147 17.6229C21.6147 21.2485 18.692 24.1877 15.0866 24.1877C11.4813 24.1877 8.5586 21.2485 8.5586 17.6229C8.5586 15.4465 9.60803 13.517 11.2421 12.3165C12.9103 11.0909 13.2747 8.73743 12.056 7.05982C10.8372 5.38221 8.4969 5.01577 6.82867 6.24135C3.34938 8.79745 1.07703 12.9436 1.07703 17.6229C1.07703 25.4037 7.34935 31.7113 15.0866 31.7113C22.8239 31.7113 29.0963 25.4037 29.0963 17.6229C29.0963 12.9436 26.8239 8.79745 23.3446 6.24135C21.6764 5.01577 19.3361 5.38221 18.1173 7.05982" stroke="#2362FB" stroke-width="1.77155" stroke-linecap="round"/>
<path d="M10.9545 12.5401C9.48847 13.7471 8.55816 15.5751 8.55816 17.6231C8.55816 21.2487 11.4809 24.1878 15.0862 24.1878C18.6915 24.1878 21.6142 21.2487 21.6142 17.6231C21.6142 15.5751 20.6839 13.7471 19.2179 12.5401C18.4029 11.8692 18.2831 10.6609 18.9503 9.84135C19.6175 9.0218 20.8191 8.90134 21.634 9.57229C23.947 11.4765 25.4284 14.3766 25.4284 17.6231C25.4284 23.367 20.798 28.0234 15.0862 28.0234C9.37437 28.0234 4.74402 23.367 4.74402 17.6231C4.74402 14.3766 6.22545 11.4765 8.53838 9.57229" stroke="#2362FB" stroke-width="1.77155" stroke-linecap="round"/>
</svg>
