<?xml version="1.0" standalone="no"?>
<!DOCTYPE svg PUBLIC "-//W3C//DTD SVG 20010904//EN"
 "http://www.w3.org/TR/2001/REC-SVG-20010904/DTD/svg10.dtd">
<svg version="1.0" xmlns="http://www.w3.org/2000/svg"
 width="393.000000pt" height="393.000000pt" viewBox="0 0 393.000000 393.000000"
 preserveAspectRatio="xMidYMid meet">
<metadata>
Created by potrace 1.14, written by Peter Selinger 2001-2017
</metadata>
<g transform="translate(0.000000,393.000000) scale(0.100000,-0.100000)"
fill="#000000" stroke="none">
<path d="M1071 3789 c-64 -12 -139 -38 -191 -67 -121 -67 -312 -240 -437 -397
-34 -44 -68 -86 -74 -93 -28 -34 -149 -246 -183 -321 -117 -261 -173 -520
-173 -806 -1 -460 148 -883 436 -1240 70 -87 193 -211 269 -272 26 -21 49 -41
52 -44 16 -18 282 -189 294 -189 2 0 42 -18 88 -39 126 -59 278 -109 412 -136
177 -35 205 -38 381 -40 590 -8 1138 243 1521 697 75 90 174 230 174 247 0 5
4 11 8 13 14 5 110 201 148 300 40 105 91 294 100 371 4 29 8 55 10 58 6 11
17 188 17 274 0 83 -9 228 -19 280 -66 384 -210 701 -444 980 -85 101 -257
259 -353 324 -274 186 -635 124 -835 -143 -42 -55 -20 -141 44 -171 18 -8 43
-13 56 -11 12 3 28 5 34 5 6 1 36 26 65 57 95 98 175 136 294 136 90 0 159
-26 250 -94 79 -60 219 -195 287 -278 175 -213 303 -487 360 -772 18 -92 22
-147 22 -303 0 -104 -3 -215 -7 -245 -40 -274 -148 -547 -305 -770 -37 -52
-123 -151 -192 -220 -323 -323 -728 -496 -1183 -502 -114 -2 -233 5 -302 18
-436 80 -785 280 -1056 604 -54 65 -152 208 -181 265 -8 17 -22 44 -32 60 -63
115 -139 348 -161 495 -4 25 -9 59 -12 75 -11 66 -9 326 3 418 16 125 56 285
100 400 30 79 115 255 136 282 4 6 24 35 44 65 133 204 392 445 522 486 92 29
205 18 294 -27 48 -25 124 -102 150 -153 57 -111 58 -226 5 -338 -34 -71 -61
-102 -137 -159 -175 -132 -308 -348 -361 -584 -16 -75 -19 -241 -4 -331 13
-77 40 -184 56 -214 4 -8 15 -33 25 -55 31 -74 123 -204 189 -269 223 -221
502 -317 817 -282 37 4 70 7 73 7 2 0 23 6 45 14 22 8 42 15 45 15 13 2 46 14
110 42 98 42 198 111 281 193 67 66 154 173 154 189 0 5 8 20 18 34 28 40 77
166 98 252 29 115 26 346 -5 460 -50 180 -136 327 -268 457 -46 45 -90 97 -98
116 -31 75 24 165 107 174 53 6 77 -5 148 -67 185 -161 352 -457 386 -684 3
-23 9 -61 14 -86 13 -67 5 -304 -13 -390 -22 -107 -60 -217 -108 -312 -36 -72
-84 -154 -99 -168 -3 -3 -18 -23 -35 -45 -72 -99 -196 -211 -317 -288 -96 -61
-268 -135 -349 -151 -13 -2 -44 -9 -69 -14 -79 -18 -153 -25 -260 -24 -452 5
-873 263 -1081 662 -255 488 -164 1075 227 1463 43 42 81 77 85 77 13 0 38 55
41 87 3 42 -36 99 -76 113 -57 18 -94 4 -169 -67 -196 -184 -334 -398 -412
-637 -96 -296 -95 -635 3 -926 43 -126 139 -316 197 -389 74 -92 141 -167 193
-216 183 -172 405 -294 646 -355 437 -111 910 -13 1266 262 114 88 286 275
331 359 6 13 15 26 19 29 13 9 106 202 133 275 36 96 62 199 73 285 3 25 7 56
10 70 3 14 5 75 5 135 1 322 -93 619 -278 878 -55 76 -255 287 -273 287 -5 0
-15 6 -22 13 -43 43 -182 70 -276 53 -93 -17 -205 -103 -250 -192 -46 -92 -51
-207 -13 -301 29 -74 57 -113 109 -153 61 -47 143 -148 186 -229 81 -155 104
-348 61 -517 -67 -264 -250 -455 -515 -539 -84 -27 -285 -30 -377 -6 -194 50
-352 166 -456 333 -162 260 -144 600 44 839 56 70 63 77 134 134 123 98 187
184 232 312 24 68 27 93 27 193 0 85 -4 129 -18 170 -72 216 -231 367 -441
419 -62 16 -185 21 -244 10z"/>
</g>
</svg>
